<?xml version="1.0" ?><svg enable-background="new -196.599 54.421 460.337 455.055" id="Layer_1" version="1.1" viewBox="-196.599 54.421 460.337 455.055" xml:space="preserve" xmlns="http://www.w3.org/2000/svg" xmlns:xlink="http://www.w3.org/1999/xlink"><g><g id="_x38_4-dev"><g><g><g><path d="M-35.637,252.042c0.671-5.705-0.417-11.359-1.734-16.799c-1.329-5.486-3.028-10.964-6.304-15.642       c-3.155-4.505-7.565-8.146-12.455-11.406c-4.448-2.965-8.922-5.284-13.738-6.411c-4.928-1.152-10.012-0.874-15.069-1.38       c-4.446,1.976-9.206,2.046-13.898,2.185c-4.808,0.142-9.633,0.396-14.187-0.11c-6,0-10.777,0.671-16.777-0.329       c3,5,1.529,10.896,2.529,16.896c1,5.996,1.386,11.944,1.262,17.94c-0.125,6.004-0.497,12.01-0.998,18.014       c-0.201,5.832-0.377,11.714-0.756,17.61c-0.375,5.842-0.5,11.732-0.922,17.606c-0.421,5.859-1.313,11.692-1.656,17.552       c-0.344,5.883-0.826,11.754-0.963,17.604c-0.139,5.903-0.061,11.792,0.14,17.631c0,7-0.686,12.836,0.314,19.836       c7.131,0.51,14.09,1.363,21.354,1.75c6.996,0.372,14.172,0.18,21.532,1.161c7,1,14.805,0.036,20.805-3.964       c2-2,5.188-1.753,7.188-3.753c5.467-4.474,10.033-9.656,13.278-15.49c3.284-5.902,5.232-12.495,5.735-19.536       c1-2,2.763-5.06,3.763-7.06c0.975-5.361,2.013-10.596,2.301-15.854c0.295-5.385,0.276-10.745,0.158-16.051       c-0.12-5.369-0.696-10.696-0.918-16.016c-0.223-5.352-0.507-10.702-0.507-16.038       C-36.149,251.807-35.637,252.042-35.637,252.042z M-67.365,320c0,3,1.567,6.337-1.433,8.337c-2,1-4.377,0.429-6.377,1.429       c-2,2-0.825,6.469-3.825,6.469c-2,0-4.174-2.583-6.174-2.583c0,1,1.174,1.758,2.174,1.758c-6,0-12.808-2.614-18.808-2.614       c0-5.645-0.509-11.149-0.233-16.859c0.273-5.652,0.888-11.325,1.335-17.01c0.446-5.66,1.478-11.282,2.002-16.942       c0.525-5.67,0.927-11.346,1.438-16.985c0.515-5.692,0.871-11.371,1.272-16.999c0-5-0.112-10.092-2.112-15.092       c9-3,17.136-0.353,26.136,0.647c5,0,9.935,3.452,10.935,8.452c1,4,2.79,6.974,2.79,10.974       c-0.74,5.673-1.582,11.215-2.551,16.705c-0.989,5.596-1.648,11.193-2.592,16.724c-0.949,5.561-2.46,11.035-3.075,16.659       c-0.606,5.544-0.286,11.215-0.286,16.946C-66.759,320.198-67.365,320-67.365,320z"/></g><g><path d="M69,232.598c-6.034,0-12.163-0.203-18.347-0.428c-6.103-0.222-12.267,0.053-18.369-0.388       c-6.16-0.445-12.208-0.967-18.219-1.635c3,2,1.542,5.804,1.542,8.804c-0.995,4.976-1.454,10.189-2.321,15.291       c-0.876,5.151-1.682,10.156-4.194,14.677c6.041-0.503,11.963-0.109,18.004,0.401c5.959,0.503,11.617,1.542,17.576,3.031       c0.503,4.524-0.829,8.921-1.829,13.697c-0.989,4.724-1.447,9.567,1.039,14.043c0.614,0.789,1.117-0.535,2.117-0.535       c-5.917,0-11.63,0.564-17.18-0.042c-5.707-0.623-11.282-2.055-16.858-3.575c-1.492,5.968-2.427,11.998-2.807,17.966       c-0.383,6.032,0.225,11.952,1.23,17.984c1,1,0.626,3.841,2.626,3.841c5.317,0.332,10.505,0.288,15.675,0.104       c5.243-0.188,10.457-0.454,15.699-0.411c5.145,0.041,9.889,0.817,15.18,1.81c-1,7,1.448,14.763,3.448,21.763       c1,3,3.003,5.141,6.003,6.141c-7.005-0.5-14.026-0.411-21.031-0.286c-6.995,0.125-14.017,0.361-21.012-0.638       c-9-1-16.998-0.579-25.998,0.421c-6,0-12.578-3.74-13.578-9.74c-3-9-6.164-16.912-7.164-25.912       c-0.167-5.868-0.309-11.745-0.154-17.66c0.154-5.873,0.455-11.762,0.788-17.663c0.332-5.877,0.962-11.747,1.335-17.633       c0.374-5.888,0.873-11.775,1.15-17.654c0.278-5.904,0.216-11.819,0.259-17.695c0.044-5.914-0.533-11.751-0.869-17.618       c-0.111-0.488-1.181,0.441-1.181-0.059c1-6,2.494-12.91,8.494-16.91c2-1,2.797-2.456,4.797-3.456c3-1,7.128-2.43,11.128-2.43       c7,1,14.024,0.875,21.024,1.125c7,0.25,13.987,0.754,20.987,1.754c5,0,9.951,0.053,14.951-0.947       c2.521,4.033,3.906,8.688,4.142,13.605c0.231,4.837-0.994,9.615-2.481,14.078c-1,1-1.681,1.028-2.681,1.028       c3-1,4.166,0.702,7.166,1.702C69.287,232.588,69,232.598,69,232.598z"/></g><g><path d="M165.112,346.07c-2.498,3.997-5.413,7.631-8.535,10.88c-3.127,3.253-6.597,5.896-11.601,6.896       c-8,1-13.706-3.053-18.706-9.053c-3.7-5.427-6.607-10.945-9.135-16.615c-2.608-5.854-5.003-11.681-6.719-17.794       c-1.702-6.068-2.918-12.283-4.097-18.607c-1.147-6.15-2.005-12.439-2.988-18.832c-0.986-5.521-2.649-10.892-3.791-16.335       c-1.15-5.486-2.167-10.977-3.475-16.384c-1.318-5.446-2.494-10.912-3.972-16.278c-1.487-5.399-3.422-10.651-5.071-15.969       c-1.659-5.347-3.179-10.702-5.001-15.966c4.999-0.5,10.002-1.244,15-1.744c5.002-0.5,9.928-0.69,14.929,0.81       c0.6,0.375-1.29,0.214-1.29,0.921c1,0,1.603-0.711,2.157,0.121c1,3,2.919,3.879,2.919,6.879c0,1,2.029,1.058,2.029,2.058       c1,3,1.135,6.001,3.135,8.001c1,3,2.04,6.957,3.04,9.957c1.367,5.665,2.157,11.331,3.241,16.873       c1.112,5.683,2.433,11.244,3.294,16.861c0.873,5.684,1.365,11.377,2.031,17.061c0.665,5.672,1.261,11.349,1.771,17.086       c0.502,5.654,1.667,11.195,2.065,16.977c1-2,1.742-4.845,2.742-6.845c1-4,2.186-6.938,3.186-10.938c1-2,1.96-2.998,2.96-4.998       c3-8,5.959-16.029,8.959-24.029c0-1-0.266-2.083-0.266-3.083c1-3,2.679-6.099,3.679-9.099       c1.643-5.913,4.155-11.473,5.69-17.241c1.568-5.889,2.886-11.794,4.119-17.681c1.236-5.901,2.079-11.767,2.751-17.818       c5.012-0.501,10.106,0.154,15.369,0.654c5.237,0.498,10.707,0.434,15.695-1.063c-0.252,5.563-1.472,11.276-2.458,16.744       c-0.981,5.437-1.648,10.974-3.036,16.38c-1.373,5.35-3.137,10.632-4.598,16.015c-1.449,5.338-2.651,10.773-3.886,16.204       c-1,2-1.872,4.987-2.872,6.987c0,4-2.316,7.961-4.316,11.961c-1.507,5.024-3.392,9.947-4.945,14.987       c-1.548,5.02-2.655,10.182-4.093,15.249c-1.435,5.057-2.684,10.156-3.853,15.291c-1.165,5.118-2.773,10.242-3.521,15.469       c1-1,1.563-1.021,2.563-2.021c-1,0-1.076-0.015-1.076,0.985C165.145,346.052,165.112,346.07,165.112,346.07z"/></g><path d="M263.653,115.712c-0.855-6.555-1.936-13.523-4.866-20.332c-2.917-6.773-7.346-12.454-11.696-17.582      c-3.984-4.698-9.508-10.563-16.915-14.239c-6.249-3.103-13.615-4.443-22.527-4.103c-0.148,0.006-0.298,0.015-0.445,0.027      c-3.052,0.254-6.188,0.271-9.509,0.288c-2.561,0.014-5.209,0.027-7.903,0.156c-4.539,0.217-9.203,0.307-13.715,0.394      l-3.768,0.075c-2.657,0.057-5.302,0.171-7.86,0.281c-3.365,0.146-6.543,0.283-9.732,0.299c-2.794,0.018-5.648-0.093-8.659-0.207      c-2.893-0.109-5.883-0.223-8.939-0.225c-3.186-0.067-6.292,0.043-9.296,0.149c-3.009,0.106-5.852,0.207-8.617,0.131      c-3.59-0.099-7.181-0.224-10.772-0.349c-2.416-0.084-4.832-0.168-7.247-0.244c-3.016-0.096-6.134-0.259-9.149-0.417      c-2.896-0.151-5.889-0.308-8.88-0.412c-3.106-0.107-6.197-0.127-9.188-0.147c-3.066-0.021-5.963-0.039-8.868-0.145      c-2.792-0.101-5.611-0.333-8.596-0.579c-3.056-0.252-6.214-0.512-9.439-0.631c-3.284-0.122-6.497-0.068-9.601-0.018      c-2.958,0.049-5.753,0.094-8.494-0.004c-2.73-0.099-5.5-0.34-8.433-0.595c-3.11-0.271-6.326-0.55-9.626-0.664      c-2.788-0.096-5.575-0.218-8.363-0.34c-3.241-0.142-6.482-0.284-9.724-0.386c-3.304-0.104-6.559-0.066-9.706-0.028      c-2.92,0.035-5.678,0.067-8.416-0.008c-2.541-0.07-5.081-0.157-7.621-0.244c-3.5-0.119-7-0.238-10.498-0.316      c-2.713-0.06-5.416-0.196-8.277-0.341c-3.201-0.161-6.511-0.328-9.853-0.38c-4.018-0.063-8.036-0.084-12.052-0.105      c-2.034-0.011-4.067-0.021-6.1-0.037c-3.864-0.031-7.757-0.01-11.522,0.012c-2.215,0.013-4.429,0.025-6.641,0.027l-3.575,0.001      c-4.778,0-9.719,0.001-14.602,0.055c-2.568,0.03-5.229,0.007-7.801-0.013c-3.348-0.027-6.805-0.054-10.279,0.021      c-5.858,0.016-12.144,1.198-19.211,3.614c-4.88,1.668-11.016,4.162-16.396,8.876c-1.312,0.475-2.903,1.313-4.416,2.825      c-4.389,4.389-7.96,10.117-10.917,17.509c-0.11,0.275-0.208,0.556-0.293,0.84c-1.979,6.594-1.723,12.511-1.291,18.006      c0.362,4.607,0.415,9.278,0.416,13.647c-0.102,3.592-0.242,7.181-0.382,10.771c-0.089,2.282-0.178,4.565-0.258,6.851      c-0.108,3.118-0.073,6.176-0.04,9.134c0.034,3.017,0.066,5.866-0.046,8.663c-0.133,3.284-0.304,6.567-0.474,9.85      c-0.138,2.644-0.275,5.288-0.394,7.934c-0.119,2.657-0.222,5.315-0.325,7.974c-0.127,3.275-0.254,6.551-0.412,9.824      c-0.139,2.89-0.355,5.76-0.584,8.799c-0.221,2.925-0.449,5.95-0.601,8.992c-0.142,2.83-0.374,5.651-0.619,8.639      c-0.244,2.974-0.497,6.049-0.655,9.156c-0.17,3.339-0.097,6.56-0.026,9.673c0.065,2.876,0.127,5.593-0.005,8.194      c-0.136,2.69-0.418,5.423-0.716,8.316c-0.316,3.064-0.643,6.233-0.803,9.493c-0.157,3.188-0.211,6.353-0.264,9.414      c-0.05,2.925-0.097,5.688-0.227,8.453l-0.25,5.293c-0.2,4.19-0.4,8.381-0.58,12.57c-0.117,2.711-0.304,5.404-0.501,8.257      c-0.216,3.123-0.439,6.353-0.564,9.609c-0.126,3.31-0.175,6.617-0.223,9.815c-0.039,2.667-0.08,5.424-0.166,8.09      c-0.067,2.085-0.141,4.171-0.215,6.256c-0.137,3.884-0.274,7.768-0.372,11.653c-0.065,2.615-0.181,5.204-0.304,7.944      c-0.145,3.246-0.295,6.603-0.352,9.976c-0.056,3.376,0.04,6.692,0.132,9.899c0.08,2.79,0.156,5.426,0.138,8.047      c-0.016,2.21-0.045,4.42-0.074,6.63c-0.049,3.697-0.099,7.52-0.086,11.319c0.008,2.464-0.018,4.929-0.043,7.393      c-0.036,3.445-0.072,7.008-0.019,10.575c0.053,3.446,0.284,6.811,0.509,10.063c0.186,2.694,0.361,5.242,0.436,7.765      c0.002,6.236,0.168,13.477,1.994,20.693c1.458,5.766,3.767,13.153,8.773,19.792c0.493,1.306,1.324,2.848,2.839,4.363      l0.715,0.711c1.631,1.618,2.92,2.896,4.132,4.713c0.365,0.548,0.784,1.059,1.249,1.524c1.282,1.281,2.763,2.215,4.439,2.793      c8.234,7.841,18.608,7.896,23.27,7.896c0.032,0,0.064,0,0.096,0c2.93,0.025,5.858,0.15,8.958,0.282      c2.963,0.127,6.026,0.258,9.116,0.295c2.92,0.035,5.839,0.033,8.758,0.026c3.07-0.003,6.243-0.009,9.322,0.037      c3.045,0.048,6.089,0.027,9.029,0.009c3.127-0.021,6.079-0.038,9.061,0.014c3.041,0.053,6.176,0.163,9.208,0.27      c2.895,0.102,5.888,0.207,8.873,0.266c2.841,0.056,5.7,0.231,8.727,0.418c3.03,0.187,6.164,0.38,9.35,0.447      c3.297,0.068,6.501-0.048,9.601-0.163c2.968-0.109,5.771-0.208,8.506-0.152c2.813,0.063,5.646,0.247,8.645,0.442      c3.059,0.199,6.221,0.405,9.44,0.478c3.105,0.07,6.216,0.082,9.224,0.093c2.927,0.012,5.953,0.022,8.882,0.089      c3.136,0.071,6.271,0.075,9.303,0.078c2.904,0.003,5.907,0.006,8.808,0.07c2.892,0.064,5.878,0.186,8.767,0.303      c3.045,0.124,6.193,0.252,9.339,0.319c2.886,0.062,5.772,0.154,8.658,0.248c3.152,0.102,6.305,0.203,9.458,0.266      c3.309,0.065,6.618,0.11,9.929,0.155c2.731,0.036,5.464,0.073,8.195,0.122c2.606,0.047,5.214,0.103,7.82,0.157      c3.436,0.073,6.871,0.146,10.307,0.2c2.788,0.044,5.576,0.18,8.528,0.323c3.117,0.151,6.341,0.308,9.604,0.35      c6.044,0.076,12.091,0.15,18.143,0.209c3.326,0.029,6.591-0.107,9.743-0.24c2.922-0.123,5.675-0.245,8.402-0.226      c2.713,0.016,5.464,0.162,8.377,0.317c3.16,0.168,6.429,0.343,9.774,0.347c0.032,0,0.065,0,0.098,0      c3.388,0,6.654-0.229,9.813-0.451c2.883-0.202,5.604-0.393,8.245-0.401c2.719-0.023,5.463,0.1,8.37,0.216      c2.864,0.114,5.817,0.232,8.829,0.232c0.202,0,0.406,0.001,0.606,0c0.091,0.003,0.181,0.004,0.271,0.004      c8.341,0,15.919-0.986,22.524-2.931c7.828-2.307,14.916-6.283,21.104-11.853c6.554-5.959,11.804-13.205,15.183-20.957      c4.064-9.324,5.549-18.255,4.415-26.547c-0.348-3.667-0.146-7.565,0.068-11.688l0.084-1.652      c0.243-4.898,0.266-10.649-1.268-16.687c0.057-3.01,0.02-5.974-0.017-8.854c-0.027-2.115-0.055-4.23-0.042-6.346      c0.022-3.734-0.019-7.487-0.059-11.117c-0.02-1.836-0.04-3.671-0.052-5.509c-0.018-2.567,0.05-5.142,0.122-7.868      c0.073-2.806,0.15-5.708,0.128-8.646c-0.021-2.814,0.06-5.636,0.146-8.623c0.073-2.525,0.148-5.137,0.157-7.769      c0.005-1.584,0.004-3.167,0.002-4.75c-0.003-3.798-0.007-7.725,0.092-11.521c0.069-2.615,0.015-5.16-0.037-7.62      c-0.064-3.006-0.125-5.846,0.039-8.556c0.004-0.053,0.006-0.104,0.009-0.157c0.117-2.617,0.342-5.254,0.58-8.047      c0.287-3.37,0.584-6.854,0.691-10.428c0.069-2.268,0.152-4.535,0.236-6.804c0.14-3.811,0.285-7.752,0.358-11.675      c0.072-3.771,0.092-7.575,0.112-11.253c0.013-2.399,0.025-4.799,0.052-7.195c0.04-3.42,0.032-6.865,0.025-10.196      c-0.005-2.74-0.011-5.479,0.009-8.22c0.021-2.908,0.119-5.799,0.225-8.86c0.105-3.096,0.215-6.298,0.236-9.519      c0.021-3.354-0.169-6.6-0.353-9.739c-0.177-3.011-0.344-5.855-0.317-8.613c0.028-3.18,0.133-6.326,0.242-9.657      c0.094-2.821,0.19-5.737,0.235-8.652c0.044-2.904,0.024-5.802,0.005-8.605c-0.023-3.346-0.045-6.507,0.033-9.676      c0.107-4.326,0.285-8.762,0.456-13.051c0.069-1.729,0.139-3.458,0.204-5.184c0.131-3.464,0.37-6.9,0.624-10.539      c0.177-2.547,0.354-5.094,0.493-7.641c0.119-2.198,0.22-4.395,0.32-6.59c0.183-3.979,0.354-7.738,0.638-11.534      C263.761,117.07,263.741,116.388,263.653,115.712z M243.094,128.37c-0.099,2.138-0.196,4.276-0.313,6.417      c-0.133,2.446-0.304,4.892-0.475,7.339c-0.253,3.633-0.515,7.39-0.658,11.172c-0.064,1.713-0.133,3.426-0.201,5.14      c-0.175,4.364-0.355,8.876-0.467,13.355c-0.086,3.487-0.063,6.956-0.039,10.311c0.02,2.817,0.038,5.479-0.003,8.159      c-0.042,2.737-0.136,5.564-0.226,8.299c-0.109,3.302-0.223,6.717-0.254,10.135c-0.031,3.434,0.163,6.754,0.352,9.966      c0.173,2.951,0.336,5.737,0.318,8.44c-0.019,2.942-0.119,5.868-0.225,8.964c-0.105,3.059-0.213,6.222-0.236,9.4      c-0.02,2.802-0.015,5.604-0.009,8.404c0.007,3.265,0.014,6.641-0.023,9.929c-0.027,2.438-0.041,4.876-0.054,7.314      c-0.02,3.612-0.039,7.346-0.108,10.983c-0.07,3.745-0.212,7.595-0.35,11.318c-0.085,2.311-0.169,4.621-0.239,6.934      c-0.092,3.026-0.353,6.09-0.629,9.334c-0.243,2.843-0.493,5.781-0.629,8.774c-0.208,3.498-0.137,6.858-0.067,10.109      c0.05,2.329,0.097,4.529,0.04,6.671c-0.105,4.067-0.102,8.132-0.099,12.063c0.002,1.554,0.003,3.108-0.002,4.663      c-0.008,2.378-0.076,4.748-0.149,7.259c-0.088,3.035-0.179,6.174-0.154,9.354c0.021,2.599-0.049,5.206-0.121,7.967      c-0.073,2.769-0.148,5.632-0.129,8.527c0.013,1.865,0.033,3.729,0.053,5.595c0.039,3.546,0.079,7.213,0.058,10.779      c-0.013,2.24,0.015,4.479,0.043,6.718c0.042,3.302,0.081,6.421-0.013,9.527c-0.033,1.075,0.108,2.147,0.417,3.177      c1.115,3.718,1.094,7.769,0.904,11.593l-0.083,1.606c-0.246,4.752-0.501,9.665,0.022,14.896      c0.014,0.141,0.031,0.281,0.051,0.421c0.663,4.632-0.319,10.003-2.917,15.964c-2.259,5.183-5.822,10.075-10.267,14.116      c-3.911,3.521-8.399,6.044-13.337,7.499c-4.676,1.377-10.225,2.088-16.498,2.115c-0.155-0.006-0.312-0.007-0.465-0.007      c-2.867,0.031-5.754-0.091-8.819-0.213c-2.993-0.119-6.09-0.222-9.237-0.231c-3.305,0.011-6.492,0.234-9.575,0.451      c-2.97,0.208-5.737,0.427-8.485,0.401c-2.826-0.004-5.696-0.156-8.735-0.318c-3.019-0.161-6.14-0.327-9.331-0.346      c-0.188-0.001-0.376-0.001-0.563-0.001c-3.003,0-5.943,0.124-8.793,0.244c-3.031,0.128-5.898,0.256-8.712,0.223      c-6.028-0.057-12.054-0.131-18.076-0.207c-2.904-0.037-5.811-0.179-8.887-0.328c-2.983-0.146-6.068-0.296-9.186-0.345      c-3.399-0.053-6.799-0.125-10.197-0.197c-2.628-0.056-5.257-0.111-7.885-0.158c-2.762-0.05-5.524-0.087-8.286-0.124      c-3.267-0.044-6.533-0.088-9.799-0.153c-3.071-0.062-6.141-0.16-9.211-0.26c-2.959-0.095-5.917-0.19-8.876-0.254      c-2.954-0.063-6.004-0.187-8.955-0.307c-2.979-0.121-6.058-0.246-9.133-0.313c-3.112-0.07-6.223-0.073-9.232-0.076      c-2.926-0.003-5.951-0.007-8.87-0.072c-3.118-0.071-6.242-0.083-9.263-0.094c-2.915-0.011-5.928-0.022-8.844-0.088      c-2.795-0.063-5.612-0.247-8.594-0.441c-3.078-0.2-6.26-0.407-9.502-0.479c-3.322-0.076-6.556,0.047-9.683,0.16      c-2.946,0.108-5.73,0.214-8.444,0.153c-2.782-0.059-5.58-0.231-8.543-0.413c-3.1-0.191-6.306-0.389-9.564-0.452      c-2.829-0.056-5.744-0.158-8.563-0.257c-3.12-0.109-6.345-0.223-9.561-0.278c-3.216-0.058-6.429-0.037-9.535-0.018      c-2.968,0.018-5.77,0.036-8.602-0.007c-3.246-0.049-6.507-0.042-9.655-0.039c-2.827,0.005-5.656,0.01-8.484-0.024      c-2.784-0.034-5.563-0.152-8.505-0.278c-3.13-0.134-6.366-0.271-9.723-0.301c-5.718,0-8.41-0.799-10.289-3.054      c-0.193-0.231-0.397-0.455-0.611-0.669c-1.111-1.111-2.373-1.96-3.781-2.543c-1.381-1.704-2.73-3.089-3.932-4.287      c-0.437-1.023-1.089-2.161-2.104-3.303c-2.308-2.984-4.009-6.965-5.495-12.84c-1.276-5.047-1.383-10.64-1.383-15.936      c0-0.094-0.001-0.188-0.004-0.28c-0.083-2.974-0.285-5.893-0.479-8.714c-0.216-3.128-0.419-6.083-0.463-8.991      c-0.05-3.313-0.016-6.593,0.02-10.065c0.026-2.555,0.053-5.109,0.044-7.665c-0.012-3.636,0.037-7.375,0.084-10.991      c0.03-2.249,0.059-4.498,0.075-6.748c0.022-2.982-0.063-5.924-0.145-8.769c-0.09-3.121-0.175-6.068-0.127-8.987      c0.052-3.094,0.189-6.165,0.335-9.417c0.121-2.717,0.247-5.525,0.317-8.337c0.096-3.816,0.23-7.633,0.365-11.449      c0.074-2.105,0.148-4.211,0.216-6.317c0.092-2.84,0.134-5.686,0.174-8.438c0.047-3.225,0.093-6.271,0.21-9.347      c0.113-2.948,0.316-5.884,0.531-8.992c0.198-2.854,0.402-5.805,0.53-8.776c0.179-4.16,0.377-8.32,0.576-12.479l0.252-5.311      c0.143-3.062,0.195-6.103,0.246-9.045c0.052-3.037,0.101-5.906,0.242-8.772c0.134-2.724,0.42-5.494,0.722-8.425      c0.311-3.02,0.633-6.143,0.796-9.353c0.169-3.335,0.096-6.551,0.025-9.662c-0.065-2.879-0.127-5.599,0.006-8.204      c0.142-2.796,0.371-5.583,0.613-8.534c0.248-3.013,0.503-6.129,0.661-9.279c0.139-2.788,0.348-5.555,0.569-8.484      c0.229-3.039,0.467-6.182,0.619-9.346c0.16-3.334,0.289-6.67,0.419-10.005c0.102-2.62,0.203-5.24,0.32-7.857      c0.116-2.597,0.251-5.193,0.386-7.789c0.175-3.359,0.349-6.719,0.485-10.083c0.133-3.313,0.096-6.557,0.061-9.694      c-0.032-2.857-0.063-5.557,0.029-8.213c0.078-2.255,0.167-4.51,0.254-6.764c0.145-3.711,0.29-7.421,0.394-11.134      c0.002-0.093,0.004-0.186,0.004-0.279c0-4.816-0.058-10.009-0.478-15.352c-0.305-3.88-0.468-7.126,0.396-10.301      c1.535-3.748,3.191-6.692,5.029-8.931c1.229-0.495,2.658-1.31,4.022-2.674c2.214-2.214,5.42-3.96,10.397-5.661      c4.998-1.708,9.204-2.539,12.858-2.539c0.074,0,0.149-0.001,0.223-0.002c3.209-0.071,6.403-0.045,9.782-0.02      c2.667,0.021,5.422,0.044,8.178,0.013c4.774-0.052,9.661-0.053,14.385-0.054l3.589-0.001c2.245-0.002,4.49-0.015,6.736-0.027      c3.698-0.021,7.521-0.042,11.251-0.012c2.051,0.017,4.103,0.027,6.155,0.038c3.947,0.021,7.896,0.041,11.844,0.103      c2.995,0.046,5.989,0.197,9.158,0.357c2.874,0.145,5.845,0.295,8.841,0.361c3.42,0.076,6.839,0.192,10.259,0.309      c2.583,0.088,5.167,0.176,7.753,0.248c3.131,0.086,6.216,0.049,9.202,0.014c3.069-0.037,5.966-0.071,8.837,0.02      c3.161,0.1,6.32,0.238,9.479,0.377c2.851,0.125,5.702,0.25,8.552,0.348c2.776,0.095,5.595,0.341,8.58,0.6      c3.051,0.266,6.207,0.54,9.441,0.658c3.267,0.118,6.461,0.065,9.548,0.015c2.972-0.048,5.78-0.095,8.533,0.006      c2.772,0.103,5.571,0.333,8.534,0.577c3.08,0.254,6.264,0.517,9.517,0.634c3.201,0.116,6.383,0.136,9.46,0.157      c2.983,0.02,5.801,0.038,8.628,0.136c2.813,0.097,5.717,0.249,8.525,0.396c3.116,0.163,6.339,0.332,9.562,0.434      c2.396,0.075,4.79,0.159,7.185,0.242c3.641,0.126,7.28,0.253,10.918,0.353c3.393,0.092,6.689-0.023,9.875-0.136      c2.882-0.102,5.604-0.2,8.257-0.14c0.074,0.001,0.148,0.002,0.223,0.002c2.716,0,5.425,0.103,8.292,0.211      c3.088,0.117,6.273,0.236,9.519,0.221c3.57-0.019,7.089-0.171,10.492-0.318c2.563-0.111,4.985-0.215,7.423-0.268l3.728-0.074      c4.65-0.089,9.46-0.182,14.284-0.413c2.269-0.108,4.592-0.121,7.052-0.133c3.483-0.018,7.083-0.037,10.825-0.337      c5.45-0.188,9.479,0.459,12.66,2.039c4.134,2.052,7.812,6.026,10.555,9.261c3.347,3.945,6.702,8.197,8.58,12.555      c1.796,4.174,2.601,8.999,3.271,14.014C243.429,121.038,243.259,124.76,243.094,128.37z"/></g></g></g><g id="Layer_1_1_"/></g></svg>