<svg width="256" height="258" viewBox="0 0 256 258" fill="none" xmlns="http://www.w3.org/2000/svg">
  <path fill-rule="evenodd" clip-rule="evenodd" d="M204.68 222.628C227.266 200.058 239.798 169.752 239.798 137.9V119.82H137.993L101.865 155.926H201.785C198.357 171.466 190.552 185.762 179.199 197.107C163.414 212.882 142.249 221.627 119.96 221.627C97.67 221.627 76.5051 212.882 60.7205 197.107C51.1987 187.59 44.2828 176.191 40.202 163.723C37.5421 155.449 36.1212 146.765 36.1212 137.9C36.1212 115.626 44.8754 94.4739 60.6599 78.6991C72.4242 66.9437 87.266 59.026 103.407 55.8334C108.31 54.832 113.394 54.2943 118.478 54.18H136.04V18.0802H118.478C87.1448 18.4297 57.3468 30.9581 35.1178 53.1718C12.5926 75.688 0 105.994 0 137.9C0 158.877 5.44108 179.202 15.67 197.168L15.9663 197.699L16.2559 198.23L16.5522 198.761L16.6734 198.996L16.8485 199.292L17.1448 199.823L17.266 199.998L17.5017 200.354L17.798 200.885L17.8519 200.945L18.1481 201.362L18.7407 202.424L19.037 202.834L19.0976 202.955L19.4545 203.486L19.6902 203.842L19.8047 204.017L20.1616 204.548L20.3367 204.79C24.6532 211.229 29.6229 217.251 35.1785 222.87C57.7037 245.379 88.0337 257.962 119.96 257.962C151.825 257.726 182.155 245.144 204.68 222.628ZM219.879 101.8V36.0998H154.135L190.256 0H256V65.7002L219.879 101.8Z" fill="#202020" />
</svg>